<svg width="120" height="120" viewBox="0 0 120 120" fill="none" xmlns="http://www.w3.org/2000/svg">
<path d="M51.2844 11.6384L50.29 12.6328L53.3908 15.7336L54.3852 14.7392L51.2844 11.6384Z" fill="#5E6175"/>
<path d="M51.5883 18.1484H47.2031V19.5547H51.5883V18.1484Z" fill="#5E6175"/>
<path d="M57.9375 8.4375H56.5312V12.8227H57.9375V8.4375Z" fill="#5E6175"/>
<path d="M21.382 25.8672L9.76172 33.3789L21.382 41.2703H64.7953V25.8672H21.382Z" fill="#3460FB"/>
<path d="M94.458 41.2656H54.9189V56.2914H94.458L106.078 48.7797L94.458 41.2656Z" fill="#A9AFC4"/>
<path d="M38.2361 55.5478C37.9865 55.2967 37.8027 54.988 37.701 54.6489C37.5993 54.3099 37.5829 53.951 37.6531 53.604C37.7233 53.2571 37.878 52.9328 38.1036 52.66C38.3291 52.3871 38.6185 52.1742 38.946 52.0399C39.2736 51.9057 39.6292 51.8544 39.9813 51.8905C40.3334 51.9266 40.6712 52.049 40.9647 52.2469C41.2582 52.4448 41.4984 52.712 41.6638 53.0249C41.8293 53.3378 41.9151 53.6868 41.9134 54.0407C41.9104 54.4655 41.7818 54.8798 41.5439 55.2316C41.306 55.5835 40.9694 55.8571 40.5764 56.0182C40.1834 56.1793 39.7515 56.2205 39.3351 56.1368C38.9187 56.0531 38.5363 55.8482 38.2361 55.5478ZM39.7642 53.2884C39.6175 53.2884 39.474 53.3319 39.3519 53.4133C39.2299 53.4947 39.1346 53.6105 39.0783 53.746C39.0219 53.8814 39.0069 54.0306 39.0352 54.1746C39.0635 54.3186 39.1338 54.451 39.2372 54.5551C39.3407 54.6592 39.4726 54.7303 39.6164 54.7595C39.7602 54.7887 39.9095 54.7746 40.0453 54.7191C40.1811 54.6636 40.2975 54.5691 40.3797 54.4475C40.4619 54.326 40.5063 54.1828 40.5072 54.036C40.5087 53.9374 40.4907 53.8394 40.4541 53.7478C40.4175 53.6561 40.363 53.5727 40.2939 53.5023C40.2248 53.4318 40.1424 53.3758 40.0514 53.3375C39.9605 53.2992 39.8629 53.2793 39.7642 53.279V53.2884ZM92.5127 37.6345C92.2357 37.363 92.0305 37.027 91.9154 36.6567C91.8003 36.2864 91.7789 35.8933 91.853 35.5126C91.9272 35.132 92.0947 34.7757 92.3404 34.4757C92.5862 34.1757 92.9025 33.9414 93.2611 33.7937C93.6197 33.6461 94.0094 33.5897 94.3951 33.6297C94.7808 33.6696 95.1506 33.8047 95.4713 34.0228C95.792 34.2408 96.0536 34.535 96.2326 34.879C96.4116 35.223 96.5025 35.6061 96.497 35.9939C96.4906 36.4526 96.3497 36.8993 96.0917 37.2787C95.8337 37.6581 95.4701 37.9535 95.0459 38.1282C94.6217 38.3028 94.1555 38.3492 93.7052 38.2614C93.2549 38.1737 92.8402 37.9557 92.5127 37.6345ZM94.1697 35.0564C93.9525 35.0549 93.7416 35.1289 93.5729 35.2657C93.4042 35.4025 93.2882 35.5936 93.2448 35.8064C93.2014 36.0192 93.2332 36.2405 93.3348 36.4325C93.4364 36.6244 93.6015 36.7751 93.8019 36.8589C94.0023 36.9426 94.2256 36.9542 94.4335 36.8916C94.6415 36.829 94.8213 36.6961 94.9422 36.5157C95.0631 36.3353 95.1176 36.1185 95.0964 35.9023C95.0752 35.6862 94.9796 35.4841 94.8259 35.3306C94.6502 35.16 94.4146 35.0649 94.1697 35.0657V35.0564ZM25.4673 49.3275C25.0615 48.9148 24.7865 48.3917 24.6766 47.8235C24.5667 47.2553 24.6268 46.6673 24.8495 46.1332C25.0722 45.599 25.4475 45.1424 25.9284 44.8205C26.4094 44.4986 26.9746 44.3257 27.5533 44.3235C30.1455 44.3235 31.4908 47.4876 29.6205 49.3439C29.3467 49.6155 29.0221 49.8305 28.6652 49.9767C28.3083 50.1229 27.9262 50.1973 27.5405 50.1958C27.1549 50.1943 26.7733 50.1168 26.4176 49.9678C26.0618 49.8188 25.739 49.6012 25.4673 49.3275ZM27.5533 45.7298C27.1994 45.7295 26.8564 45.8519 26.5826 46.0761C26.3088 46.3003 26.1211 46.6125 26.0516 46.9595C25.982 47.3064 26.0348 47.6668 26.2011 47.9792C26.3673 48.2916 26.6367 48.5368 26.9633 48.6729C27.2899 48.8091 27.6537 48.8278 27.9926 48.726C28.3315 48.6242 28.6247 48.408 28.8221 48.1144C29.0196 47.8207 29.1093 47.4677 29.0758 47.1154C29.0423 46.7631 28.8877 46.4333 28.6384 46.1821C28.4962 46.039 28.3272 45.9254 28.141 45.8478C27.9547 45.7702 27.755 45.7301 27.5533 45.7298Z" fill="#5E6175"/>
<path d="M64.0596 94.3477H55.6221V20.8594C55.6221 19.7405 56.0665 18.6674 56.8577 17.8763C57.6489 17.0851 58.7219 16.6406 59.8408 16.6406C60.9597 16.6406 62.0328 17.0851 62.8239 17.8763C63.6151 18.6674 64.0596 19.7405 64.0596 20.8594V94.3477Z" fill="#F5F5F5"/>
<path d="M64.7627 95.0508H54.9189V20.8594C54.9189 19.554 55.4375 18.3021 56.3605 17.3791C57.2836 16.4561 58.5355 15.9375 59.8408 15.9375C61.1462 15.9375 62.3981 16.4561 63.3211 17.3791C64.2441 18.3021 64.7627 19.554 64.7627 20.8594V95.0508ZM56.3252 93.6445H63.3564V20.8594C63.3564 19.927 62.986 19.0328 62.3267 18.3735C61.6674 17.7141 60.7732 17.3438 59.8408 17.3438C58.9084 17.3438 58.0142 17.7141 57.3549 18.3735C56.6956 19.0328 56.3252 19.927 56.3252 20.8594V93.6445Z" fill="#5E6175"/>
<path d="M47.8924 89.0602C46.9403 89.0515 46.0165 89.3841 45.2885 89.9977C43.3525 91.6617 42.2182 93.9445 41.7728 94.9524H41.365C39.9025 91.4625 36.6635 89.1539 34.9994 88.1555C34.3724 87.7813 33.6554 87.5844 32.9252 87.5859H32.5947C37.3549 93.3516 36.2557 100.608 36.2557 100.608H45.9119C44.4025 94.6852 47.8924 89.0602 47.8924 89.0602Z" fill="#3460FB"/>
<path d="M95.6084 78.5547H94.2021V77.1484H95.6084V78.5547ZM95.6084 74.8047H94.2021V73.3984H95.6084V74.8047ZM95.6084 71.0547H94.2021V69.6484H95.6084V71.0547ZM95.6084 67.3047H94.2021V65.8984H95.6084V67.3047ZM95.6084 63.5547H94.2021V62.1484H95.6084V63.5547ZM95.6084 59.8047H94.2021V58.3984H95.6084V59.8047Z" fill="#A9AFC4"/>
<path d="M68.3363 82.3281H51.6699V100.605H68.3363V82.3281Z" fill="#5E6175"/>
<path d="M82.9873 99.9062H25.0264V101.312H82.9873V99.9062Z" fill="#5E6175"/>
<path d="M94.9361 111.566C103.387 111.566 110.238 104.715 110.238 96.2633C110.238 87.812 103.387 80.9609 94.9361 80.9609C86.4849 80.9609 79.6338 87.812 79.6338 96.2633C79.6338 104.715 86.4849 111.566 94.9361 111.566Z" fill="#F5F5F5"/>
<path d="M94.9359 112.266C91.7697 112.266 88.6744 111.328 86.0416 109.569C83.4088 107.81 81.3566 105.31 80.1448 102.385C78.9329 99.4597 78.6157 96.2409 79.2333 93.1354C79.8509 90.03 81.3755 87.1775 83.6144 84.9386C85.8532 82.6997 88.7058 81.1751 91.8112 80.5575C94.9166 79.9399 98.1355 80.2571 101.061 81.469C103.986 82.6809 106.486 84.733 108.245 87.3658C110.003 89.9986 110.942 93.0939 110.941 96.2602C110.936 100.504 109.249 104.572 106.248 107.572C103.248 110.573 99.1793 112.261 94.9359 112.266ZM94.9359 81.6586C92.0479 81.6581 89.2246 82.5141 86.8231 84.1183C84.4216 85.7224 82.5497 88.0027 81.4442 90.6708C80.3387 93.3388 80.0492 96.2748 80.6123 99.1073C81.1755 101.94 82.5659 104.542 84.6079 106.584C86.6499 108.626 89.2516 110.017 92.0841 110.581C94.9166 111.145 97.8526 110.856 100.521 109.75C103.189 108.645 105.47 106.774 107.074 104.373C108.679 101.971 109.535 99.1482 109.535 96.2602C109.531 92.3893 107.991 88.6782 105.254 85.9409C102.518 83.2036 98.8068 81.6636 94.9359 81.6586Z" fill="#5E6175"/>
<path d="M96.6254 99.9047H93.2457C93.2458 98.7603 93.5179 97.6322 94.0395 96.6135C94.561 95.5947 95.3172 94.7145 96.2457 94.0454C96.5591 93.8211 96.8096 93.5201 96.9731 93.1712C97.1367 92.8222 97.2077 92.4371 97.1795 92.0528C97.1513 91.6684 97.0247 91.2978 96.812 90.9765C96.5992 90.6552 96.3074 90.394 95.9646 90.2179C95.6218 90.0419 95.2395 89.957 94.8544 89.9713C94.4693 89.9856 94.0944 90.0987 93.7656 90.2997C93.4368 90.5007 93.1652 90.7828 92.9769 91.119C92.7886 91.4552 92.6899 91.8342 92.6902 92.2196H89.3105C89.3104 91.2558 89.5579 90.3082 90.0293 89.4675C90.5007 88.6269 91.1801 87.9215 92.0025 87.4189C92.8249 86.9164 93.7627 86.6336 94.7258 86.5977C95.6889 86.5617 96.6451 86.7738 97.5026 87.2137C98.3602 87.6535 99.0904 88.3063 99.6231 89.1095C100.156 89.9126 100.473 90.8392 100.545 91.8003C100.617 92.7614 100.44 93.7248 100.033 94.5981C99.6248 95.4714 98.9996 96.2254 98.2168 96.7876C97.7233 97.1437 97.3217 97.6121 97.045 98.1541C96.7682 98.6961 96.6244 99.2962 96.6254 99.9047Z" fill="#3460FB"/>
<path d="M96.6027 102.523H93.209V105.917H96.6027V102.523Z" fill="#3460FB"/>
</svg>
