<svg width="120" height="120" viewBox="0 0 120 120" fill="none" xmlns="http://www.w3.org/2000/svg">
<path d="M40.561 85.1875V99.25C40.5607 99.7833 40.6655 100.311 40.8694 100.804C41.0732 101.297 41.3722 101.745 41.7492 102.122C42.1262 102.499 42.5738 102.798 43.0664 103.002C43.5591 103.207 44.0871 103.312 44.6204 103.312H66.1829C67.2601 103.312 68.2933 102.884 69.055 102.122C69.8167 101.36 70.2446 100.327 70.2446 99.25V85.1875H40.561Z" fill="#F5F5F5"/>
<path style="mix-blend-mode:multiply" d="M63.8392 89.5781V91.9922C63.8392 92.371 63.6889 92.7342 63.4212 93.0023C63.1536 93.2703 62.7906 93.4213 62.4118 93.4219C62.1966 93.4218 61.9841 93.4702 61.7901 93.5635C61.5962 93.6568 61.4257 93.7927 61.2915 93.9609L60.5274 94.9242C60.3943 95.0927 60.2248 95.2289 60.0316 95.3226C59.8384 95.4164 59.6265 95.4653 59.4118 95.4656H51.4009C51.1858 95.4655 50.9735 95.4167 50.7799 95.3229C50.5863 95.2292 50.4164 95.0929 50.2829 94.9242L49.5188 93.9656C49.3846 93.7974 49.2142 93.6615 49.0202 93.5682C48.8263 93.4748 48.6138 93.4264 48.3985 93.4266C48.0198 93.4259 47.6567 93.275 47.3891 93.007C47.1215 92.7389 46.9712 92.3756 46.9712 91.9969V89.5828C46.9712 89.9467 47.1156 90.2957 47.3726 90.5532C47.6297 90.8107 47.9784 90.9556 48.3423 90.9563H49.8071C49.8037 91.2794 49.8644 91.6001 49.9858 91.8997C50.1071 92.1992 50.2866 92.4717 50.5139 92.7015C50.7413 92.9312 51.0119 93.1136 51.3102 93.238C51.6085 93.3625 51.9285 93.4266 52.2517 93.4266H58.5259C58.8492 93.4266 59.1693 93.3625 59.4677 93.2381C59.7661 93.1137 60.0369 92.9313 60.2644 92.7016C60.4919 92.4719 60.6717 92.1994 60.7933 91.8998C60.9148 91.6002 60.9758 91.2795 60.9728 90.9563H62.4681C62.6486 90.9559 62.8274 90.92 62.994 90.8506C63.1607 90.7811 63.312 90.6795 63.4394 90.5515C63.5667 90.4235 63.6676 90.2716 63.7362 90.1046C63.8048 89.9376 63.8398 89.7587 63.8392 89.5781Z" fill="url(#paint0_linear_7401_69111)"/>
<path d="M66.9373 24.9164V23.0555C66.9373 22.4311 66.6893 21.8322 66.2477 21.3907C65.8062 20.9492 65.2074 20.7012 64.583 20.7012C63.9586 20.7012 63.3598 20.9492 62.9183 21.3907C62.4768 21.8322 62.2287 22.4311 62.2287 23.0555V25.8844C62.2287 26.1388 62.1786 26.3907 62.0811 26.6258C61.9837 26.8608 61.8409 27.0743 61.6609 27.2541C61.4808 27.4339 61.2671 27.5765 61.032 27.6736C60.7968 27.7708 60.5449 27.8206 60.2904 27.8203H60.0701C59.8157 27.8206 59.5637 27.7708 59.3285 27.6736C59.0934 27.5765 58.8797 27.4339 58.6997 27.2541C58.5197 27.0743 58.3769 26.8608 58.2794 26.6258C58.182 26.3907 58.1318 26.1388 58.1318 25.8844V16.8539C58.1321 16.5675 58.076 16.2838 57.9666 16.0191C57.8572 15.7543 57.6967 15.5138 57.4942 15.3111C57.2918 15.1085 57.0514 14.9477 56.7868 14.838C56.5222 14.7283 56.2386 14.6719 55.9521 14.6719H55.7178C55.1391 14.6719 54.584 14.9018 54.1748 15.311C53.7656 15.7202 53.5357 16.2752 53.5357 16.8539V30.2812C53.5448 30.5413 53.5014 30.8005 53.4081 31.0434C53.3148 31.2864 53.1736 31.508 52.9928 31.6952C52.8121 31.8823 52.5954 32.0312 52.3559 32.1329C52.1164 32.2345 51.8588 32.2869 51.5986 32.2869C51.3384 32.2869 51.0809 32.2345 50.8413 32.1329C50.6018 32.0312 50.3852 31.8823 50.2044 31.6952C50.0237 31.508 49.8824 31.2864 49.7892 31.0434C49.6959 30.8005 49.6525 30.5413 49.6615 30.2812V23.6133C49.6711 23.3209 49.6218 23.0295 49.5165 22.7566C49.4112 22.4836 49.2521 22.2346 49.0487 22.0243C48.8452 21.8141 48.6015 21.6469 48.3322 21.5328C48.0628 21.4186 47.7732 21.3597 47.4807 21.3597C47.1881 21.3597 46.8985 21.4186 46.6291 21.5328C46.3598 21.6469 46.1161 21.8141 45.9127 22.0243C45.7092 22.2346 45.5501 22.4836 45.4448 22.7566C45.3395 23.0295 45.2902 23.3209 45.2998 23.6133C45.3021 24.693 44.9831 25.7489 44.3833 26.6467C43.7835 27.5445 42.9301 28.2435 41.9318 28.6547C29.6881 33.6609 21.7498 45.6539 21.6631 59.6789C21.692 57.4411 22.6087 55.3065 24.2114 53.7446C25.0051 52.9712 25.9432 52.3618 26.9724 51.951C28.0015 51.5402 29.1015 51.3361 30.2096 51.3504C31.3176 51.3647 32.412 51.5971 33.4302 52.0344C34.4484 52.4716 35.3705 53.1051 36.1439 53.8987C36.9172 54.6924 37.5267 55.6305 37.9375 56.6597C38.3483 57.6889 38.5524 58.7888 38.5381 59.8969C38.5381 57.6591 39.427 55.513 41.0094 53.9307C42.5917 52.3483 44.7378 51.4594 46.9756 51.4594C49.2133 51.4594 51.3595 52.3483 52.9418 53.9307C54.5241 55.513 55.4131 57.6591 55.4131 59.8969C55.4131 57.6591 56.302 55.513 57.8844 53.9307C59.4667 52.3483 61.6128 51.4594 63.8506 51.4594C66.0883 51.4594 68.2345 52.3483 69.8168 53.9307C71.3991 55.513 72.2881 57.6591 72.2881 59.8969C72.3363 57.7107 73.2313 55.6286 74.7846 54.0894C76.3378 52.5503 78.428 51.6742 80.6145 51.646C82.801 51.6177 84.9131 52.4394 86.5056 53.9379C88.0981 55.4365 89.0467 57.4947 89.1514 59.6789C89.0623 46.6219 80.8592 35.3227 69.9373 29.7867C69.0358 29.3317 68.2782 28.6356 67.7486 27.7758C67.219 26.916 66.9382 25.9262 66.9373 24.9164Z" fill="#F5F5F5"/>
<path style="mix-blend-mode:multiply" d="M87.5416 49.9773C77.3932 49.0844 69.8135 40.1547 70.5119 30.0859C78.3424 34.2391 84.7057 41.3758 87.5416 49.9773Z" fill="url(#paint1_linear_7401_69111)"/>
<path d="M38.5454 59.3485V59.8829C38.5597 58.7749 38.3557 57.6749 37.9449 56.6457C37.534 55.6166 36.9246 54.6784 36.1512 53.8848C35.3778 53.0911 34.4557 52.4576 33.4375 52.0204C32.4193 51.5831 31.3249 51.3507 30.2169 51.3364C29.1089 51.3221 28.0089 51.5262 26.9797 51.937C25.9505 52.3478 25.0124 52.9573 24.2188 53.7306C22.616 55.2925 21.6993 57.4272 21.6704 59.6649C21.7595 45.6399 29.6954 33.6493 41.9392 28.6407C42.9373 28.2292 43.7905 27.5302 44.3902 26.6325C44.9899 25.7347 45.3091 24.6789 45.3071 23.5993C45.2975 23.3069 45.3469 23.0155 45.4521 22.7426C45.5574 22.4696 45.7165 22.2206 45.92 22.0104C46.1234 21.8001 46.3671 21.6329 46.6365 21.5188C46.9058 21.4046 47.1954 21.3458 47.488 21.3458C47.7806 21.3458 48.0701 21.4046 48.3395 21.5188C48.6089 21.6329 48.8525 21.8001 49.056 22.0104C49.2595 22.2206 49.4186 22.4696 49.5238 22.7426C49.6291 23.0155 49.6784 23.3069 49.6688 23.5993V28.779C36.5767 44.2477 38.5454 59.3485 38.5454 59.3485ZM72.2743 59.3626H72.2579C72.0976 57.1926 71.1051 55.1684 69.4877 53.7127C67.8703 52.2571 65.7531 51.4826 63.5783 51.551C61.4034 51.6193 59.339 52.5253 57.8162 54.0796C56.2935 55.6339 55.4301 57.7164 55.4063 59.8923C55.4063 59.6415 55.3876 63.8063 55.3876 14.6954C55.5745 14.6679 55.7637 14.6584 55.9524 14.6673C56.2389 14.6673 56.5225 14.7237 56.7871 14.8334C57.0517 14.9431 57.2921 15.1039 57.4945 15.3065C57.697 15.5092 57.8575 15.7497 57.9669 16.0145C58.0763 16.2792 58.1324 16.5629 58.1321 16.8493V25.8798C58.1321 26.1342 58.1823 26.3861 58.2797 26.6212C58.3772 26.8562 58.52 27.0697 58.7 27.2495C58.88 27.4293 59.0937 27.5719 59.3288 27.669C59.564 27.7662 59.816 27.816 60.0704 27.8157H60.2907C60.7537 27.8158 61.2012 27.6495 61.5517 27.347C74.4001 44.0626 72.2743 59.3626 72.2743 59.3626Z" fill="#A9AFC4"/>
<path d="M66.1896 104.023H44.6271C43.3638 104.021 42.1526 103.519 41.2593 102.626C40.366 101.732 39.8635 100.521 39.8623 99.2578V84.4922H70.9545V99.2578C70.9532 100.521 70.4508 101.732 69.5575 102.626C68.6642 103.519 67.453 104.021 66.1896 104.023ZM41.2615 85.8914V99.2508C41.2628 100.141 41.617 100.995 42.2466 101.624C42.8762 102.254 43.7297 102.608 44.6201 102.609H66.1826C67.073 102.608 67.9265 102.254 68.5561 101.624C69.1857 100.995 69.54 100.141 69.5412 99.2508V85.8914H41.2615Z" fill="#5E6175"/>
<path d="M70.6056 85.8875H40.2048L20.9673 59.9094V59.4641H21.9587L22.2353 59.2578L40.9149 84.4812H69.8954C89.3696 58.1844 88.4368 59.4922 88.4368 59.3609H88.5001L88.5751 59.2578L88.7134 59.3609H89.8431V59.9094L70.6056 85.8875Z" fill="#5E6175"/>
<path d="M56.1092 85.8859H49.9053L37.835 60.0484V59.3594H39.2412V59.7367L50.8006 84.4797H54.7029V59.8937H56.1092V85.8859Z" fill="#5E6175"/>
<path d="M60.9047 85.8859H54.7031V59.8937H56.1094V84.4797H60.0094L71.5711 59.7367V59.3594H72.9773V60.0484L60.9047 85.8859Z" fill="#5E6175"/>
<path d="M62.4678 91.6407H48.3443C47.794 91.6407 47.2662 91.4222 46.8768 91.0333C46.4874 90.6444 46.2684 90.1168 46.2678 89.5665V85.186H47.674V89.5758C47.6746 89.7532 47.7455 89.9231 47.8712 90.0483C47.9968 90.1735 48.167 90.2438 48.3443 90.2438H62.4678C62.6447 90.2432 62.8143 90.1726 62.9394 90.0475C63.0645 89.9223 63.1351 89.7528 63.1357 89.5758V85.186H64.542V89.5758C64.5389 90.1241 64.3191 90.6489 63.9305 91.0358C63.5419 91.4226 63.0161 91.6401 62.4678 91.6407ZM72.9795 59.8969H71.5732C71.5732 57.8456 70.7584 55.8784 69.3079 54.4279C67.8574 52.9774 65.8902 52.1625 63.8389 52.1625C61.7876 52.1625 59.8203 52.9774 58.3698 54.4279C56.9194 55.8784 56.1045 57.8456 56.1045 59.8969H54.6982C54.6982 57.8456 53.8834 55.8784 52.4329 54.4279C50.9824 52.9774 49.0152 52.1625 46.9639 52.1625C44.9126 52.1625 42.9453 52.9774 41.4948 54.4279C40.0444 55.8784 39.2295 57.8456 39.2295 59.8969H37.8232C37.8497 57.8456 37.0601 55.8679 35.6283 54.3987C34.9194 53.6713 34.0741 53.0906 33.1407 52.6898C32.2073 52.289 31.2042 52.076 30.1885 52.0629C28.1372 52.0365 26.1594 52.826 24.6903 54.2578C23.2211 55.6896 22.3809 57.6464 22.3545 59.6977L20.9482 59.6743C21.0373 45.3633 29.1514 33.1172 41.6529 28.0032C42.5238 27.6474 43.2683 27.0393 43.7908 26.257C44.3133 25.4747 44.5898 24.554 44.585 23.6133C44.574 23.2277 44.6404 22.8437 44.7804 22.4842C44.9204 22.1247 45.1311 21.7969 45.4 21.5203C45.6689 21.2436 45.9905 21.0237 46.3459 20.8735C46.7013 20.7233 47.0831 20.6459 47.4689 20.6459C47.8548 20.6459 48.2366 20.7233 48.592 20.8735C48.9474 21.0237 49.269 21.2436 49.5379 21.5203C49.8068 21.7969 50.0175 22.1247 50.1575 22.4842C50.2975 22.8437 50.3639 23.2277 50.3529 23.6133V30.2813C50.3457 30.4479 50.3722 30.6142 50.4309 30.7702C50.4897 30.9263 50.5794 31.0688 50.6947 31.1892C50.81 31.3097 50.9485 31.4055 51.1018 31.471C51.2552 31.5365 51.4202 31.5702 51.5869 31.5702C51.7536 31.5702 51.9187 31.5365 52.072 31.471C52.2253 31.4055 52.3638 31.3097 52.4791 31.1892C52.5944 31.0688 52.6841 30.9263 52.7429 30.7702C52.8016 30.6142 52.8282 30.4479 52.8209 30.2813V16.854C52.8212 16.4736 52.8967 16.097 53.0429 15.7459C53.1892 15.3947 53.4034 15.076 53.6733 14.8079C53.9431 14.5398 54.2632 14.3276 54.6153 14.1836C54.9674 14.0397 55.3444 13.9666 55.7248 13.9688H55.9592C56.7213 13.9737 57.4506 14.2798 57.988 14.8203C58.5254 15.3608 58.8273 16.0918 58.8279 16.854V25.8844C58.8285 26.2116 58.959 26.5252 59.1905 26.7563C59.4221 26.9874 59.7359 27.1172 60.0631 27.1172H60.2834C60.6106 27.1172 60.9244 26.9874 61.156 26.7563C61.3875 26.5252 61.5179 26.2116 61.5186 25.8844V23.0555C61.5186 22.2446 61.8407 21.467 62.414 20.8936C62.9874 20.3202 63.7651 19.9981 64.576 19.9981C65.3869 19.9981 66.1645 20.3202 66.7379 20.8936C67.3113 21.467 67.6334 22.2446 67.6334 23.0555V24.9165C67.6325 25.797 67.8767 26.6604 68.3386 27.4101C68.8006 28.1597 69.4621 28.766 70.249 29.161C81.7334 34.9829 89.7537 46.6852 89.8357 59.6743L88.4295 59.6977C88.3302 57.6981 87.4593 55.8148 86.0001 54.4441C84.5408 53.0733 82.6069 52.3218 80.605 52.3476C78.603 52.3734 76.6891 53.1745 75.2656 54.5824C73.8422 55.9903 73.0202 57.8954 72.9725 59.8969H72.9795ZM38.5381 56.3813C39.2322 54.7155 40.4038 53.2925 41.9053 52.2915C43.4068 51.2905 45.171 50.7563 46.9756 50.7563C48.7802 50.7563 50.5444 51.2905 52.0459 52.2915C53.5474 53.2925 54.719 54.7155 55.4131 56.3813C56.1072 54.7155 57.2788 53.2925 58.7803 52.2915C60.2818 51.2905 62.046 50.7563 63.8506 50.7563C65.6552 50.7563 67.4194 51.2905 68.9209 52.2915C70.4224 53.2925 71.594 54.7155 72.2881 56.3813C74.9998 49.8985 83.66 48.8157 87.9139 54.2297C86.0225 44.2852 79.242 35.2946 69.6326 30.4149C68.6139 29.9026 67.7578 29.117 67.1601 28.1459C66.5625 27.1749 66.2467 26.0567 66.2482 24.9165V23.0555C66.2482 22.6176 66.0743 22.1976 65.7646 21.888C65.455 21.5783 65.035 21.4043 64.5971 21.4043C64.1591 21.4043 63.7392 21.5783 63.4295 21.888C63.1199 22.1976 62.9459 22.6176 62.9459 23.0555V25.8844C62.9453 26.5846 62.6667 27.2558 62.1714 27.7507C61.6761 28.2455 61.0046 28.5235 60.3045 28.5235H60.0842C59.7358 28.526 59.3904 28.4596 59.0678 28.3281C58.7452 28.1966 58.4517 28.0027 58.2043 27.7575C57.9569 27.5122 57.7604 27.2205 57.626 26.899C57.4917 26.5776 57.4223 26.2328 57.4217 25.8844V16.854C57.4217 16.4621 57.2662 16.0863 56.9893 15.809C56.7125 15.5318 56.3369 15.3757 55.9451 15.375H55.7107C55.3187 15.3757 54.9429 15.5317 54.6657 15.8089C54.3885 16.0861 54.2325 16.4619 54.2318 16.854V30.2813C54.2424 30.6346 54.1819 30.9865 54.0539 31.316C53.926 31.6456 53.7332 31.946 53.487 32.1997C53.2408 32.4534 52.9461 32.655 52.6206 32.7927C52.295 32.9304 51.9451 33.0014 51.5916 33.0014C51.2381 33.0014 50.8882 32.9304 50.5626 32.7927C50.2371 32.655 49.9424 32.4534 49.6962 32.1997C49.45 31.946 49.2572 31.6456 49.1293 31.316C49.0013 30.9865 48.9408 30.6346 48.9514 30.2813V23.6133C48.9593 23.4143 48.9269 23.2158 48.8563 23.0296C48.7856 22.8434 48.678 22.6734 48.54 22.5297C48.402 22.3861 48.2364 22.2719 48.0532 22.1938C47.8699 22.1158 47.6728 22.0756 47.4736 22.0756C47.2745 22.0756 47.0774 22.1158 46.8941 22.1938C46.7109 22.2719 46.5453 22.3861 46.4073 22.5297C46.2693 22.6734 46.1617 22.8434 46.091 23.0296C46.0203 23.2158 45.988 23.4143 45.9959 23.6133C46.0006 24.8304 45.6424 26.0212 44.9669 27.0336C44.2914 28.0461 43.3293 28.8341 42.2037 29.2969C31.7037 33.5907 24.56 43.0665 22.7998 54.361C26.9951 48.8063 35.7982 49.8329 38.5381 56.3813Z" fill="#5E6175"/>
<path d="M48.7266 8.4375H47.3203V15.6445H48.7266V8.4375Z" fill="#5E6175"/>
<path d="M71.271 10.7422H69.8647V21.5539H71.271V10.7422Z" fill="#5E6175"/>
<path d="M62.9907 13.5781H61.5845V16.9648H62.9907V13.5781Z" fill="#5E6175"/>
<path d="M41.749 15.6406H40.3428V24.1531H41.749V15.6406Z" fill="#5E6175"/>
<path d="M58.5258 93.4164H52.2516C51.616 93.3967 51.0131 93.1304 50.5705 92.6739C50.1279 92.2174 49.8804 91.6065 49.8804 90.9707C49.8804 90.3349 50.1279 89.724 50.5705 89.2675C51.0131 88.811 51.616 88.5447 52.2516 88.525H58.5258C59.1613 88.5447 59.7643 88.811 60.2068 89.2675C60.6494 89.724 60.897 90.3349 60.897 90.9707C60.897 91.6065 60.6494 92.2174 60.2068 92.6739C59.7643 93.1304 59.1613 93.3967 58.5258 93.4164ZM17.3649 39.9039C16.9486 39.9034 16.5408 39.786 16.188 39.5651C15.8352 39.3441 15.5516 39.0285 15.3695 38.6542C15.1873 38.2798 15.114 37.8619 15.1579 37.4479C15.2017 37.0339 15.361 36.6406 15.6176 36.3128C15.8741 35.985 16.2176 35.7358 16.6088 35.5937C17.0001 35.4515 17.4234 35.4222 17.8306 35.509C18.2377 35.5957 18.6123 35.7952 18.9116 36.0845C19.2109 36.3738 19.4229 36.7414 19.5235 37.1453C19.605 37.473 19.6108 37.8149 19.5404 38.1452C19.4701 38.4755 19.3253 38.7853 19.1172 39.0513C18.9091 39.3172 18.6431 39.5322 18.3395 39.68C18.0359 39.8277 17.7025 39.9043 17.3649 39.9039ZM17.3649 36.857C17.223 36.8581 17.0839 36.8963 16.9614 36.9678C16.8389 37.0393 16.7372 37.1416 16.6664 37.2646C16.5957 37.3875 16.5583 37.5268 16.558 37.6687C16.5577 37.8105 16.5946 37.95 16.6648 38.0732C16.7351 38.1964 16.8364 38.2991 16.9586 38.3711C17.0809 38.4431 17.2198 38.4818 17.3616 38.4835C17.5035 38.4852 17.6433 38.4497 17.7672 38.3807C17.8911 38.3116 17.9948 38.2114 18.068 38.0898C18.1387 37.9665 18.1759 37.8268 18.1759 37.6846C18.176 37.5425 18.1389 37.4028 18.0683 37.2794C17.9977 37.156 17.8961 37.0531 17.7735 36.9811C17.651 36.9091 17.5117 36.8704 17.3696 36.8687L17.3649 36.857ZM25.9781 30.3906C25.4073 30.39 24.8481 30.229 24.3643 29.9259C23.8805 29.6229 23.4916 29.1901 23.2418 28.6768C22.9921 28.1635 22.8916 27.5903 22.9517 27.0226C23.0119 26.455 23.2303 25.9156 23.5821 25.4661C23.9339 25.0165 24.4049 24.6748 24.9415 24.4799C25.478 24.285 26.0586 24.2448 26.6169 24.3638C27.1752 24.4828 27.6888 24.7563 28.0992 25.153C28.5097 25.5498 28.8004 26.0539 28.9383 26.6078C29.0501 27.0572 29.0581 27.5261 28.9616 27.979C28.865 28.4318 28.6665 28.8568 28.3812 29.2214C28.0958 29.5861 27.7311 29.881 27.3147 30.0835C26.8983 30.2861 26.4412 30.3912 25.9781 30.3906ZM25.9781 25.7031C25.7441 25.7002 25.5122 25.7474 25.2979 25.8415C25.0836 25.9356 24.8919 26.0745 24.7357 26.2488C24.5795 26.4231 24.4625 26.6288 24.3923 26.8521C24.3222 27.0754 24.3007 27.3112 24.3292 27.5435C24.3577 27.7758 24.4356 27.9993 24.5576 28.199C24.6797 28.3987 24.843 28.57 25.0367 28.7014C25.2304 28.8328 25.45 28.9212 25.6807 28.9607C25.9114 29.0002 26.1479 28.9899 26.3742 28.9305C26.7582 28.8297 27.0926 28.5931 27.3154 28.2645C27.5382 27.936 27.6344 27.5378 27.586 27.1438C27.5377 26.7497 27.3481 26.3866 27.0524 26.1217C26.7568 25.8568 26.3751 25.7081 25.9781 25.7031Z" fill="#5E6175"/>
<path d="M73.8855 104.467L72.8911 105.461L75.8974 108.467L76.8918 107.473L73.8855 104.467Z" fill="#5E6175"/>
<path d="M79.8658 100.758H75.6143V102.164H79.8658V100.758Z" fill="#5E6175"/>
<path d="M70.8423 107.312H69.436V111.564H70.8423V107.312Z" fill="#5E6175"/>
<path d="M89.2008 46.2766C97.4579 46.2766 104.152 39.5829 104.152 31.3258C104.152 23.0687 97.4579 16.375 89.2008 16.375C80.9437 16.375 74.25 23.0687 74.25 31.3258C74.25 39.5829 80.9437 46.2766 89.2008 46.2766Z" fill="#F5F5F5"/>
<path d="M89.2007 46.9719C86.1044 46.9723 83.0776 46.0546 80.503 44.3347C77.9283 42.6148 75.9216 40.17 74.7365 37.3095C73.5514 34.4491 73.2412 31.3014 73.8451 28.2646C74.449 25.2278 75.94 22.4384 78.1294 20.249C80.3187 18.0596 83.1082 16.5687 86.145 15.9647C89.1818 15.3608 92.3294 15.671 95.1899 16.8561C98.0504 18.0412 100.495 20.048 102.215 22.6226C103.935 25.1972 104.853 28.2241 104.852 31.3203C104.847 35.4698 103.197 39.448 100.263 42.3822C97.3284 45.3163 93.3502 46.9669 89.2007 46.9719ZM89.2007 17.0727C86.3827 17.0722 83.6278 17.9074 81.2845 19.4727C78.9411 21.038 77.1146 23.263 76.0359 25.8664C74.9572 28.4697 74.6747 31.3345 75.2242 34.0985C75.7737 36.8624 77.1304 39.4013 79.1229 41.3941C81.1154 43.3869 83.6541 44.7441 86.4179 45.294C89.1817 45.844 92.0466 45.562 94.6501 44.4837C97.2537 43.4054 99.479 41.5792 101.045 39.2361C102.61 36.8931 103.446 34.1383 103.446 31.3203C103.442 27.5433 101.939 23.9223 99.269 21.2513C96.5985 18.5804 92.9777 17.0776 89.2007 17.0727Z" fill="#5E6175"/>
<path d="M92.844 23.9495L81.8247 34.9688L85.5552 38.6993L96.5745 27.68L92.844 23.9495Z" fill="#3460FB"/>
<path d="M85.5552 23.9491L81.8247 27.6797L92.844 38.699L96.5745 34.9684L85.5552 23.9491Z" fill="#3460FB"/>
<path d="M90.8721 89.9664H89.4658V88.5602H90.8721V89.9664ZM87.1221 89.9664H85.7158V88.5602H87.1221V89.9664ZM83.3721 89.9664H81.9658V88.5602H83.3721V89.9664ZM79.6221 89.9664H78.2158V88.5602H79.6221V89.9664ZM75.8721 89.9664H74.4658V88.5602H75.8721V89.9664ZM94.983 89.9688H93.5768V88.5625H94.983V89.9688ZM94.983 86.2188H93.5768V84.8125H94.983V86.2188ZM94.983 82.4688H93.5768V81.0625H94.983V82.4688ZM94.983 78.7188H93.5768V77.3125H94.983V78.7188ZM94.983 74.9688H93.5768V73.5625H94.983V74.9688ZM94.983 71.2188H93.5768V69.8125H94.983V71.2188ZM94.983 67.4688H93.5768V66.0625H94.983V67.4688ZM94.983 63.7188H93.5768V62.3125H94.983V63.7188ZM94.983 59.9688H93.5768V58.5625H94.983V59.9688ZM94.983 56.2188H93.5768V54.8125H94.983V56.2188ZM94.983 52.4688H93.5768V51.0625H94.983V52.4688Z" fill="#A9AFC4"/>
<defs>
<linearGradient id="paint0_linear_7401_69111" x1="55.404" y1="87.5203" x2="55.404" y2="101.62" gradientUnits="userSpaceOnUse">
<stop stop-color="#CACFDD"/>
<stop offset="1" stop-color="#EEF0F1"/>
</linearGradient>
<linearGradient id="paint1_linear_7401_69111" x1="70.4674" y1="40.0305" x2="87.5416" y2="40.0305" gradientUnits="userSpaceOnUse">
<stop stop-color="#CACFDD"/>
<stop offset="1" stop-color="#EEF0F1"/>
</linearGradient>
</defs>
</svg>
