<svg width="120" height="120" viewBox="0 0 120 120" fill="none" xmlns="http://www.w3.org/2000/svg">
<path d="M29.8941 42.4633C28.4586 42.2068 27.1835 41.3912 26.3486 40.1956C25.5137 39 25.1873 37.522 25.441 36.0859C25.5379 35.5546 25.529 35.0093 25.4146 34.4814C25.3002 33.9536 25.0827 33.4535 24.7746 33.0099C24.4664 32.5663 24.0737 32.1879 23.619 31.8965C23.1642 31.6051 22.6564 31.4063 22.1246 31.3117C19.1433 30.7023 17.1511 27.8359 17.6715 24.918L19.0566 25.1523C18.6722 27.325 20.1676 29.4648 22.3918 29.9195C23.8245 30.1787 25.0962 30.9952 25.9282 32.1901C26.7602 33.3849 27.0848 34.8608 26.8308 36.2945C26.7346 36.8257 26.744 37.3706 26.8587 37.8981C26.9733 38.4256 27.1909 38.9253 27.499 39.3686C27.807 39.8118 28.1995 40.19 28.654 40.4813C29.1084 40.7726 29.6158 40.9715 30.1472 41.0664L29.8941 42.4633ZM43.08 41.7766C42.319 41.068 41.7051 40.2165 41.2734 39.2705C40.8417 38.3246 40.6006 37.3028 40.5641 36.2636C40.5275 35.2245 40.6961 34.1883 41.0603 33.2144C41.4244 32.2404 41.977 31.3478 42.6863 30.5875C45.0301 28.1781 45.1144 23.9453 42.3652 21.3813C39.2433 18.3344 39.084 13.3047 41.9738 10.1875L43.0027 11.1437C40.6168 13.7102 40.7668 17.8469 43.3379 20.3641C46.6472 23.4508 46.5769 28.6094 43.7011 31.5602C42.5295 32.8242 41.907 34.5013 41.9703 36.2237C42.0335 37.9461 42.7774 39.573 44.0386 40.7477L43.08 41.7766ZM57.2996 48.7164C55.8898 46.7178 55.3313 44.2411 55.7471 41.8308C56.1629 39.4206 57.5188 37.2741 59.5168 35.8633C61.2096 34.6648 62.3577 32.8436 62.7093 30.7995C63.0608 28.7554 62.587 26.6553 61.3918 24.9602L62.5425 24.1516C63.9505 26.1518 64.5076 28.6289 64.0915 31.0394C63.6754 33.4499 62.3201 35.5969 60.323 37.0094C59.4833 37.6016 58.7686 38.3536 58.2198 39.2223C57.671 40.0911 57.2989 41.0595 57.1248 42.0722C56.9506 43.0848 56.9779 44.1219 57.2049 45.1241C57.432 46.1262 57.8544 47.0738 58.448 47.9125L57.2996 48.7164Z" fill="#5E6175"/>
<path d="M92.5197 59.5555L87.3189 94.3531C87.0555 96.1203 86.1662 97.7342 84.8128 98.9008C83.4595 100.067 81.7323 100.709 79.9455 100.709H79.5728C80.2263 100.709 80.8714 100.563 81.4614 100.282C82.0515 100.002 82.5717 99.5932 82.9843 99.0865C83.3969 98.5799 83.6916 97.9878 83.8471 97.3531C84.0025 96.7185 84.0148 96.0572 83.883 95.4172L77.4682 64.3625C77.2194 63.1703 76.5677 62.1 75.6227 61.3317C74.6777 60.5634 73.497 60.1439 72.2791 60.1438H34.8424L31.7135 54.9875C31.2412 54.2101 30.5767 53.5674 29.7841 53.1212C28.9914 52.675 28.0973 52.4404 27.1877 52.4398H25.4205C25.2362 51.6618 25.2304 50.8521 25.4036 50.0715C25.5768 49.2908 25.9244 48.5596 26.4205 47.9325C26.9166 47.3054 27.5483 46.7987 28.2681 46.4505C28.9879 46.1023 29.7772 45.9216 30.5768 45.9219H39.5369C40.4316 45.9223 41.3116 46.149 42.0951 46.5809C42.8787 47.0128 43.5402 47.6359 44.0182 48.3922L47.2244 53.4758H87.2791C88.0409 53.4759 88.7937 53.6403 89.4863 53.9577C90.1788 54.2751 90.7947 54.7381 91.2921 55.3151C91.7895 55.8921 92.1566 56.5696 92.3685 57.3014C92.5803 58.0331 92.6319 58.802 92.5197 59.5555Z" fill="url(#paint0_linear_7401_68905)"/>
<path style="mix-blend-mode:multiply" d="M92.5195 59.5563L91.0125 69.6344C87.0786 68.8053 83.4792 66.8273 80.6704 63.9509C77.8616 61.0745 75.9697 57.4291 75.2344 53.4766H87.2719C88.0343 53.4757 88.7879 53.6393 89.4813 53.9563C90.1747 54.2732 90.7915 54.7361 91.2896 55.3132C91.7878 55.8904 92.1556 56.5682 92.3678 57.3005C92.5801 58.0327 92.6318 58.8022 92.5195 59.5563Z" fill="url(#paint1_linear_7401_68905)"/>
<path d="M79.5727 100.707H23.7539C22.5362 100.707 21.3555 100.288 20.4108 99.5194C19.4661 98.751 18.815 97.6805 18.5672 96.4883L10.7813 58.8078C10.6222 58.0373 10.6368 57.2411 10.8238 56.477C11.0108 55.7128 11.3656 54.9999 11.8625 54.39C12.3593 53.78 12.9857 53.2883 13.6963 52.9506C14.4068 52.6129 15.1836 52.4376 15.9703 52.4375H27.1875C28.0973 52.4374 28.9918 52.6715 29.7848 53.1173C30.5779 53.5631 31.2428 54.2055 31.7156 54.9828L34.8445 60.1391H72.2789C73.4968 60.1392 74.6775 60.5587 75.6226 61.327C76.5676 62.0953 77.2192 63.1656 77.468 64.3578L83.8828 95.4148C84.0146 96.0548 84.0023 96.7161 83.8469 97.3508C83.6915 97.9854 83.3967 98.5775 82.9841 99.0842C82.5715 99.5908 82.0513 99.9993 81.4612 100.28C80.8712 100.561 80.2261 100.707 79.5727 100.707Z" fill="#DEE1EC"/>
<path d="M79.5725 101.41H23.7538C22.3741 101.406 21.0378 100.928 19.9683 100.056C18.8988 99.1845 18.1609 97.9722 17.878 96.6219L10.0967 58.9508C9.91646 58.078 9.93282 57.176 10.1446 56.3103C10.3564 55.4446 10.7583 54.6369 11.3212 53.9459C11.884 53.2549 12.5937 52.698 13.3986 52.3154C14.2036 51.9329 15.0836 51.7344 15.9748 51.7344H27.1873C28.216 51.7369 29.227 52.0025 30.1241 52.5058C31.0213 53.0092 31.7748 53.7336 32.3131 54.6102L35.2381 59.4195H72.2694C73.6523 59.4232 74.992 59.9021 76.0639 60.776C77.1358 61.6499 77.8747 62.8657 78.1569 64.2195L84.5717 95.2742C84.7248 96.0164 84.7107 96.7834 84.5305 97.5195C84.3503 98.2556 84.0084 98.9423 83.5298 99.5298C83.0511 100.117 82.4476 100.591 81.7631 100.916C81.0786 101.241 80.3303 101.41 79.5725 101.41ZM15.9748 53.1406C15.2933 53.1418 14.6206 53.2946 14.0054 53.588C13.3902 53.8813 12.8481 54.3079 12.4182 54.8367C11.9883 55.3656 11.6814 55.9835 11.5199 56.6456C11.3584 57.3077 11.3462 57.9974 11.4842 58.6648L19.2538 96.3289C19.471 97.3627 20.0364 98.2906 20.8554 98.9577C21.6743 99.6248 22.6974 99.9908 23.7538 99.9945H79.5725C80.1223 99.9946 80.6651 99.8721 81.1616 99.636C81.658 99.3998 82.0956 99.056 82.4425 98.6294C82.7893 98.2029 83.0367 97.7044 83.1666 97.1702C83.2966 96.636 83.3058 96.0796 83.1936 95.5414L76.7787 64.4867C76.5619 63.4522 75.9964 62.5234 75.1769 61.8557C74.3573 61.1881 73.3335 60.822 72.2764 60.8187H34.453L31.1202 55.332C30.7056 54.662 30.1267 54.1089 29.4384 53.7254C28.7502 53.3419 27.9753 53.1406 27.1873 53.1406H15.9748Z" fill="#5E6175"/>
<path d="M79.9455 101.413H79.5728V100.006C80.1226 100.006 80.6654 99.8839 81.1619 99.6477C81.6584 99.4116 82.0959 99.0677 82.4428 98.6412C82.7896 98.2146 83.037 97.7161 83.1669 97.182C83.2969 96.6478 83.3061 96.0913 83.1939 95.5532L76.7791 64.4985C76.5622 63.4639 75.9967 62.5351 75.1772 61.8675C74.3577 61.1998 73.3338 60.8338 72.2767 60.8305H34.4533L31.1205 55.3438C30.7071 54.672 30.1287 54.1171 29.4403 53.7319C28.7519 53.3466 27.9765 53.1439 27.1877 53.143H24.8627L24.7361 52.6016C24.5278 51.7203 24.5217 50.8033 24.7181 49.9193C24.9145 49.0353 25.3083 48.2072 25.8702 47.4971C26.432 46.7869 27.1472 46.213 27.9623 45.8185C28.7774 45.4239 29.6712 45.2189 30.5767 45.2188H39.5369C40.5508 45.2155 41.5488 45.4708 42.4366 45.9604C43.3245 46.4501 44.0729 47.158 44.6111 48.0172L47.6134 52.7727H87.2791C88.142 52.773 88.9947 52.9594 89.7791 53.3191C90.5635 53.6789 91.2611 54.2035 91.8243 54.8573C92.3876 55.5111 92.8032 56.2786 93.0429 57.1076C93.2826 57.9366 93.3408 58.8075 93.2134 59.661C93.2134 59.6844 93.3306 58.8875 88.015 94.4586C87.7177 96.3885 86.7417 98.1489 85.2625 99.4236C83.7834 100.698 81.8981 101.403 79.9455 101.413ZM35.2384 59.4313H72.2697C73.6513 59.4345 74.99 59.9121 76.0617 60.7841C77.1334 61.6562 77.8731 62.8698 78.1572 64.2219L84.572 95.2766C84.796 96.361 84.6611 97.4889 84.1877 98.4899C85.5009 97.4307 86.3697 95.918 86.6228 94.25L91.8236 59.4524C91.921 58.7989 91.8763 58.1321 91.6926 57.4974C91.509 56.8627 91.1906 56.2751 90.7593 55.7746C90.328 55.2741 89.7938 54.8725 89.1933 54.5971C88.5927 54.3218 87.9398 54.1791 87.2791 54.1789H46.8353L43.4205 48.7672C43.0078 48.1096 42.4346 47.568 41.7548 47.1932C41.0749 46.8184 40.3108 46.6229 39.5345 46.625H30.5744C29.928 46.6262 29.2892 46.7637 28.6996 47.0286C28.11 47.2934 27.5829 47.6797 27.1527 48.1621C26.7224 48.6445 26.3988 49.2122 26.2029 49.8282C26.007 50.4441 25.9433 51.0945 26.0158 51.7367H27.1877C28.2164 51.7393 29.2273 52.0049 30.1244 52.5082C31.0216 53.0116 31.7751 53.7359 32.3134 54.6125L35.2384 59.4313Z" fill="#5E6175"/>
<path d="M39.9538 69.0955L32.2524 76.7969L34.861 79.4054L42.5624 71.704L39.9538 69.0955Z" fill="#5E6175"/>
<path d="M34.861 69.0946L32.2524 71.7031L39.9538 79.4045L42.5624 76.796L34.861 69.0946Z" fill="#5E6175"/>
<path d="M57.8806 69.0955L50.1792 76.7969L52.7878 79.4054L60.4891 71.704L57.8806 69.0955Z" fill="#5E6175"/>
<path d="M52.7878 69.0946L50.1792 71.7031L57.8806 79.4045L60.4891 76.796L52.7878 69.0946Z" fill="#5E6175"/>
<path d="M59.3229 88.432C59.1189 88.2492 54.2252 83.9297 46.5893 83.9297C38.9533 83.9297 34.0572 88.2492 33.8533 88.432L33.251 88.9734L35.8736 91.8961L36.476 91.3687C39.3586 89.1005 42.9201 87.8673 46.5881 87.8673C50.2561 87.8673 53.8176 89.1005 56.7002 91.3687L57.3025 91.9031L59.9252 88.9734L59.3229 88.432Z" fill="#5E6175"/>
<path d="M95.1654 66.2C104.221 66.2 111.562 58.8589 111.562 49.8031C111.562 40.7474 104.221 33.4062 95.1654 33.4062C86.1097 33.4062 78.7686 40.7474 78.7686 49.8031C78.7686 58.8589 86.1097 66.2 95.1654 66.2Z" fill="#F5F5F5"/>
<path d="M95.1562 66.9023C91.7722 66.9023 88.4643 65.8989 85.6507 64.0189C82.8371 62.1389 80.6441 59.4668 79.3492 56.3404C78.0542 53.2141 77.7154 49.774 78.3755 46.4551C79.0357 43.1362 80.6652 40.0876 83.058 37.6948C85.4508 35.302 88.4994 33.6725 91.8183 33.0123C95.1372 32.3522 98.5773 32.691 101.704 33.986C104.83 35.2809 107.502 37.4739 109.382 40.2875C111.262 43.1011 112.266 46.409 112.266 49.793C112.266 54.3306 110.463 58.6825 107.254 61.8911C104.046 65.0997 99.6938 66.9023 95.1562 66.9023ZM95.1562 34.1109C92.0499 34.1109 89.0134 35.0322 86.4307 36.7582C83.8481 38.4842 81.8354 40.9374 80.6472 43.8074C79.4591 46.6775 79.1488 49.8355 79.7556 52.8819C80.3625 55.9283 81.8592 58.7263 84.0565 60.922C86.2538 63.1176 89.0529 64.6123 92.0998 65.2169C95.1467 65.8215 98.3044 65.5088 101.174 64.3185C104.043 63.1282 106.494 61.1136 108.219 58.5297C109.943 55.9458 110.862 52.9086 110.859 49.8023C110.856 45.6396 109.2 41.6485 106.256 38.7061C103.311 35.7637 99.3188 34.1109 95.1562 34.1109ZM74.2171 34.9383C73.7712 34.9383 73.3352 34.806 72.9644 34.5583C72.5937 34.3105 72.3047 33.9584 72.134 33.5464C71.9634 33.1344 71.9187 32.6811 72.0057 32.2437C72.0927 31.8063 72.3075 31.4046 72.6228 31.0893C72.9381 30.774 73.3399 30.5592 73.7772 30.4722C74.2146 30.3852 74.6679 30.4299 75.0799 30.6005C75.4919 30.7712 75.844 31.0602 76.0918 31.4309C76.3395 31.8017 76.4718 32.2376 76.4718 32.6836C76.4718 33.2816 76.2342 33.855 75.8114 34.2779C75.3886 34.7007 74.8151 34.9383 74.2171 34.9383ZM74.2171 31.8375C74.0492 31.8375 73.8851 31.8873 73.7455 31.9806C73.6059 32.074 73.4972 32.2066 73.433 32.3618C73.3689 32.517 73.3522 32.6877 73.3851 32.8523C73.4181 33.017 73.4991 33.1681 73.618 33.2867C73.7369 33.4053 73.8883 33.4859 74.053 33.5183C74.2177 33.5508 74.3884 33.5337 74.5434 33.4691C74.6984 33.4045 74.8307 33.2954 74.9237 33.1556C75.0166 33.0158 75.066 32.8515 75.0655 32.6836C75.0655 32.5723 75.0436 32.4621 75.0009 32.3593C74.9582 32.2564 74.8957 32.1631 74.8169 32.0845C74.7381 32.0059 74.6445 31.9436 74.5416 31.9012C74.4387 31.8588 74.3284 31.8372 74.2171 31.8375ZM84.7851 29.4187C84.1731 29.4169 83.5754 29.2337 83.0675 28.8924C82.5596 28.5511 82.1642 28.0669 81.9313 27.501C81.6984 26.9351 81.6385 26.3129 81.759 25.7129C81.8795 25.1129 82.1751 24.5621 82.6085 24.1301C83.0418 23.698 83.5935 23.4041 84.1939 23.2854C84.7942 23.1667 85.4162 23.2285 85.9814 23.4631C86.5466 23.6977 87.0296 24.0946 87.3694 24.6035C87.7092 25.1125 87.8905 25.7107 87.8905 26.3226C87.8902 26.7299 87.8096 27.1332 87.6533 27.5093C87.497 27.8854 87.2681 28.227 86.9797 28.5145C86.6913 28.8021 86.349 29.03 85.9724 29.1851C85.5958 29.3403 85.1923 29.4197 84.7851 29.4187ZM84.7851 24.6351C84.4507 24.6351 84.1239 24.7343 83.846 24.9201C83.568 25.1059 83.3515 25.3699 83.2236 25.6789C83.0958 25.9878 83.0625 26.3277 83.1279 26.6555C83.1933 26.9834 83.3544 27.2845 83.591 27.5207C83.8276 27.757 84.1289 27.9177 84.4568 27.9826C84.7848 28.0476 85.1246 28.0138 85.4334 27.8855C85.7421 27.7573 86.0059 27.5403 86.1913 27.2621C86.3767 26.9839 86.4754 26.657 86.4749 26.3226C86.4743 25.8749 86.296 25.4457 85.9791 25.1293C85.6623 24.8129 85.2328 24.6351 84.7851 24.6351Z" fill="#5E6175"/>
<path d="M15.0069 101.903L11.7852 105.125L12.7795 106.119L16.0013 102.898L15.0069 101.903Z" fill="#5E6175"/>
<path d="M19.9639 104.789H18.5576V109.345H19.9639V104.789Z" fill="#5E6175"/>
<path d="M12.9937 98.2109H8.4375V99.6172H12.9937V98.2109Z" fill="#5E6175"/>
<path d="M96.9771 53.711H93.3561C93.3566 52.4872 93.6474 51.2809 94.2048 50.1914C94.7622 49.1019 95.5702 48.1603 96.5623 47.4438C96.8972 47.2033 97.1648 46.8808 97.3393 46.5072C97.5138 46.1336 97.5894 45.7214 97.5588 45.3102C97.5283 44.899 97.3926 44.5026 97.1648 44.1589C96.937 43.8152 96.6248 43.5357 96.258 43.3474C95.8912 43.159 95.4821 43.068 95.0701 43.0832C94.658 43.0983 94.2568 43.219 93.9048 43.4338C93.5528 43.6485 93.2618 43.9501 93.0599 44.3096C92.8579 44.6691 92.7517 45.0744 92.7514 45.4867H89.1396C89.1423 44.4552 89.4098 43.4415 89.9164 42.5429C90.4231 41.6443 91.1519 40.8908 92.0332 40.3546C92.9145 39.8184 93.9187 39.5174 94.9496 39.4804C95.9806 39.4435 97.0037 39.6718 97.9211 40.1436C98.8385 40.6154 99.6194 41.3148 100.189 42.1748C100.759 43.0348 101.098 44.0267 101.175 45.0555C101.251 46.0842 101.062 47.1154 100.626 48.0503C100.19 48.9851 99.5209 49.7923 98.6834 50.3946C98.1574 50.7734 97.7286 51.2715 97.432 51.8479C97.1355 52.4243 96.9796 53.0627 96.9771 53.711Z" fill="#3460FB"/>
<path d="M96.9516 56.5078H93.3164V60.143H96.9516V56.5078Z" fill="#3460FB"/>
<path d="M79.7227 90.5234H78.3164V89.1172H79.7227V90.5234ZM75.9727 90.5234H74.5664V89.1172H75.9727V90.5234ZM72.2227 90.5234H70.8164V89.1172H72.2227V90.5234ZM68.4727 90.5234H67.0664V89.1172H68.4727V90.5234Z" fill="#A9AFC4"/>
<path d="M86.0015 89.1172H84.5952V90.5234H86.0015V89.1172Z" fill="#A9AFC4"/>
<path d="M95.271 90.5258H93.8647V89.1195H95.271V90.5258ZM91.521 90.5258H90.1147V89.1195H91.521V90.5258ZM98.9554 90.5234H97.5491V89.1172H98.9554V90.5234ZM98.9554 86.7734H97.5491V85.3672H98.9554V86.7734ZM98.9554 83.0234H97.5491V81.6172H98.9554V83.0234ZM98.9554 79.2734H97.5491V77.8672H98.9554V79.2734ZM98.9554 75.5234H97.5491V74.1172H98.9554V75.5234ZM98.9554 71.7734H97.5491V70.3672H98.9554V71.7734Z" fill="#A9AFC4"/>
<defs>
<linearGradient id="paint0_linear_7401_68905" x1="25.2728" y1="73.3156" x2="92.5783" y2="73.3156" gradientUnits="userSpaceOnUse">
<stop stop-color="#A9AFC4"/>
<stop offset="1" stop-color="#D4D8E5"/>
</linearGradient>
<linearGradient id="paint1_linear_7401_68905" x1="75.2414" y1="61.5531" x2="92.5781" y2="61.5531" gradientUnits="userSpaceOnUse">
<stop stop-color="#CACFDD"/>
<stop offset="1" stop-color="#EEF0F1"/>
</linearGradient>
</defs>
</svg>
