<svg viewBox="0 0 61.6 75" fill="none" xmlns="http://www.w3.org/2000/svg">
<path d="M 52.119 18.931 L 9.438 18.931 C 6.935 18.931 4.535 17.934 2.764 16.159 C 0.994 14.384 0 11.976 0 9.466 L 0 0 L 52.119 0 C 54.623 0 57.023 0.997 58.792 2.772 C 60.563 4.547 61.557 6.955 61.557 9.466 C 61.557 11.976 60.563 14.384 58.792 16.159 C 57.023 17.934 54.623 18.931 52.119 18.931 Z" fill="white"></path>
<path d="M 52.119 46.97 L 9.438 46.97 C 6.935 46.97 4.535 45.972 2.766 44.197 C 0.995 42.422 0 40.015 0 37.505 C 0 34.994 0.994 32.586 2.764 30.811 C 4.535 29.036 6.935 28.039 9.438 28.039 L 61.549 28.039 L 61.549 37.505 C 61.549 40.014 60.557 42.42 58.787 44.195 C 57.019 45.97 54.62 46.968 52.119 46.97 Z" fill="white"></path>
<path d="M 9.435 56.078 C 7.57 56.077 5.746 56.632 4.195 57.671 C 2.643 58.71 1.434 60.187 0.72 61.915 C 0.005 63.644 -0.183 65.546 0.18 67.382 C 0.544 69.217 1.441 70.903 2.761 72.226 C 4.079 73.55 5.76 74.452 7.589 74.817 C 9.418 75.183 11.315 74.997 13.04 74.281 C 14.763 73.566 16.237 72.354 17.274 70.799 C 18.311 69.244 18.865 67.415 18.867 65.544 C 18.867 63.034 17.874 60.627 16.106 58.852 C 14.337 57.077 11.938 56.079 9.435 56.078 Z M 13.732 67.552 C 13.732 67.727 13.698 67.9 13.631 68.062 C 13.565 68.223 13.468 68.37 13.344 68.494 C 13.22 68.617 13.073 68.715 12.912 68.782 C 12.751 68.849 12.578 68.883 12.405 68.882 L 6.434 68.882 C 6.082 68.882 5.744 68.742 5.495 68.492 C 5.248 68.243 5.107 67.905 5.107 67.552 C 5.107 67.199 5.248 66.861 5.495 66.612 C 5.744 66.362 6.082 66.222 6.434 66.222 L 13.732 66.222 L 13.732 67.552 Z M 12.405 64.837 L 6.434 64.837 C 6.084 64.839 5.749 64.702 5.5 64.455 C 5.251 64.209 5.111 63.874 5.107 63.524 L 5.107 62.194 L 12.405 62.194 C 12.754 62.194 13.089 62.333 13.337 62.581 C 13.583 62.829 13.722 63.166 13.722 63.516 C 13.722 63.867 13.583 64.204 13.337 64.452 C 13.089 64.7 12.754 64.839 12.405 64.839 L 12.405 64.837 Z" fill="white"></path>
</svg>
