<svg width="120" height="120" viewBox="0 0 120 120" fill="none" xmlns="http://www.w3.org/2000/svg">
<path d="M99.7195 23.9078V92.6524C99.7189 93.7553 99.2803 94.8128 98.5002 95.5925C97.7201 96.3722 96.6623 96.8102 95.5594 96.8102H22.4344C21.3325 96.8089 20.2761 96.3703 19.4974 95.5907C18.7187 94.8111 18.2812 93.7543 18.2813 92.6524V23.9078C18.2812 22.8071 18.7177 21.7513 19.4949 20.9719C20.2721 20.1925 21.3267 19.7531 22.4273 19.75H95.5523C96.0991 19.7491 96.6406 19.8559 97.146 20.0644C97.6514 20.2729 98.1107 20.579 98.4977 20.9652C98.8848 21.3513 99.1919 21.81 99.4015 22.3149C99.6112 22.8198 99.7192 23.3611 99.7195 23.9078Z" fill="#F5F5F5"/>
<path style="mix-blend-mode:multiply" d="M99.7199 75.4195V92.6555C99.7193 93.7584 99.2807 94.816 98.5006 95.5956C97.7205 96.3753 96.6627 96.8133 95.5597 96.8133H72.809C70.5519 84.886 79.7488 73.7813 91.9152 73.7813C94.6025 73.7775 97.2609 74.3356 99.7199 75.4195Z" fill="url(#paint0_linear_7401_69060)"/>
<path d="M95.5594 97.5133H22.4344C21.1464 97.5108 19.9119 96.9977 19.0016 96.0865C18.0913 95.1753 17.5794 93.9404 17.5781 92.6523V23.9078C17.5794 22.621 18.0903 21.3871 18.9991 20.4761C19.9079 19.5651 21.1406 19.0512 22.4273 19.0469H95.5523C96.8426 19.0463 98.0803 19.5579 98.9935 20.4694C99.9068 21.3808 100.421 22.6176 100.423 23.9078V92.6523C100.421 93.9414 99.9077 95.177 98.996 96.0883C98.0843 96.9996 96.8484 97.512 95.5594 97.5133ZM22.4273 20.4531C21.5133 20.4568 20.638 20.8224 19.9928 21.4698C19.3476 22.1172 18.985 22.9938 18.9844 23.9078V92.6523C18.985 93.5684 19.3492 94.4467 19.9969 95.0945C20.6447 95.7422 21.523 96.1064 22.4391 96.107H95.5641C96.4803 96.1064 97.3589 95.7423 98.007 95.0946C98.6552 94.447 99.0198 93.5686 99.0211 92.6523V23.9078C99.0198 22.9915 98.6552 22.1132 98.007 21.4655C97.3589 20.8178 96.4803 20.4537 95.5641 20.4531H22.4273Z" fill="#5E6175"/>
<path d="M99.7195 23.9078V29.0125H18.2813V23.9078C18.2812 22.8071 18.7177 21.7513 19.4949 20.9719C20.2721 20.1925 21.3267 19.7531 22.4273 19.75H95.5523C96.0991 19.7491 96.6406 19.8559 97.146 20.0644C97.6514 20.2729 98.1107 20.579 98.4977 20.9652C98.8848 21.3513 99.1919 21.81 99.4015 22.3149C99.6112 22.8198 99.7192 23.3611 99.7195 23.9078Z" fill="#5E6175"/>
<path d="M24.5344 26.1781C25.5285 26.1781 26.3344 25.3722 26.3344 24.3781C26.3344 23.384 25.5285 22.5781 24.5344 22.5781C23.5403 22.5781 22.7344 23.384 22.7344 24.3781C22.7344 25.3722 23.5403 26.1781 24.5344 26.1781Z" fill="#F5F5F5"/>
<path d="M31.3498 26.1781C32.3439 26.1781 33.1498 25.3722 33.1498 24.3781C33.1498 23.384 32.3439 22.5781 31.3498 22.5781C30.3557 22.5781 29.5498 23.384 29.5498 24.3781C29.5498 25.3722 30.3557 26.1781 31.3498 26.1781Z" fill="#F5F5F5"/>
<path d="M59.56 79.95C72.3954 79.95 82.8006 69.5448 82.8006 56.7094C82.8006 43.8739 72.3954 33.4688 59.56 33.4688C46.7245 33.4688 36.3193 43.8739 36.3193 56.7094C36.3193 69.5448 46.7245 79.95 59.56 79.95Z" fill="#DEE1EC"/>
<path d="M63.9848 91.3594H55.1348C54.5038 91.3594 53.8988 91.1087 53.4526 90.6626C53.0065 90.2165 52.7559 89.6114 52.7559 88.9805C52.7559 88.3495 53.0065 87.7445 53.4526 87.2983C53.8988 86.8522 54.5038 86.6016 55.1348 86.6016H63.9848C64.6157 86.6016 65.2208 86.8522 65.6669 87.2983C66.113 87.7445 66.3637 88.3495 66.3637 88.9805C66.3637 89.6114 66.113 90.2165 65.6669 90.6626C65.2208 91.1087 64.6157 91.3594 63.9848 91.3594Z" fill="#A9AFC4"/>
<path d="M91.915 109.148C100.711 109.148 107.841 102.018 107.841 93.2227C107.841 84.4271 100.711 77.2969 91.915 77.2969C83.1195 77.2969 75.9893 84.4271 75.9893 93.2227C75.9893 102.018 83.1195 109.148 91.915 109.148Z" fill="#F5F5F5"/>
<path d="M91.9152 109.841C88.6261 109.842 85.4108 108.867 82.6758 107.04C79.9409 105.213 77.8091 102.616 76.5502 99.5773C75.2913 96.5387 74.9618 93.1949 75.6034 89.969C76.2449 86.7431 77.8287 83.7799 80.1545 81.4542C82.4802 79.1284 85.4434 77.5447 88.6693 76.9031C91.8952 76.2615 95.2389 76.591 98.2776 77.8499C101.316 79.1088 103.913 81.2406 105.74 83.9755C107.567 86.7105 108.542 89.9259 108.542 93.2149C108.538 97.6234 106.785 101.85 103.668 104.968C100.551 108.085 96.3237 109.838 91.9152 109.841ZM91.9152 77.9923C88.9049 77.9918 85.962 78.8839 83.4586 80.5558C80.9552 82.2277 79.0037 84.6043 77.8508 87.3852C76.6979 90.166 76.3954 93.2262 76.9816 96.179C77.5678 99.1317 79.0162 101.844 81.1439 103.974C83.2715 106.104 85.9829 107.555 88.9351 108.143C91.8873 108.732 94.9478 108.433 97.7297 107.282C100.512 106.132 102.89 104.183 104.564 101.681C106.238 99.1791 107.133 96.237 107.136 93.2267C107.136 89.1887 105.532 85.3159 102.678 82.4593C99.8245 79.6027 95.9532 77.996 91.9152 77.9923ZM57.0941 62.3056C57.1309 60.5555 57.5734 58.8379 58.3868 57.2879C59.2002 55.738 60.3623 54.398 61.7816 53.3735C62.3064 52.997 62.7273 52.4938 63.0052 51.9108C63.283 51.3277 63.4089 50.6839 63.3709 50.0392C63.333 49.3944 63.1325 48.7698 62.7882 48.2234C62.4438 47.677 61.9668 47.2266 61.4015 46.9142C60.8363 46.6018 60.2011 46.4375 59.5553 46.4366C58.9094 46.4358 58.2739 46.5984 57.7078 46.9093C57.1417 47.2202 56.6635 47.6693 56.3177 48.2148C55.9719 48.7602 55.7697 49.3844 55.7301 50.029H50.7988C50.8387 48.5382 51.2584 47.0822 52.0181 45.7989C52.7779 44.5156 53.8526 43.4474 55.1405 42.6954C56.4284 41.9435 57.887 41.5327 59.378 41.5019C60.869 41.4711 62.3433 41.8213 63.6611 42.5194C64.979 43.2175 66.0969 44.2404 66.909 45.4913C67.7211 46.7421 68.2006 48.1795 68.302 49.6674C68.4034 51.1553 68.1234 52.6445 67.4885 53.994C66.8536 55.3434 65.8848 56.5085 64.6738 57.379C63.8887 57.945 63.2428 58.6823 62.7851 59.5351C62.3275 60.3879 62.07 61.3337 62.0324 62.3009L57.0941 62.3056Z" fill="#5E6175"/>
<path d="M61.9896 66.9531H57.0303V71.9125H61.9896V66.9531Z" fill="#5E6175"/>
<path d="M96.0561 94.7573C96.975 93.2641 97.3137 91.4855 97.0079 89.7591C96.7021 88.0327 95.7732 86.4786 94.3973 85.3919C93.0215 84.3052 91.2945 83.7614 89.5442 83.8638C87.794 83.9662 86.1422 84.7076 84.9024 85.9474C83.6627 87.1871 82.9213 88.8389 82.8189 90.5892C82.7165 92.3394 83.2603 94.0664 84.347 95.4422C85.4337 96.8181 86.9878 97.7471 88.7142 98.0528C90.4406 98.3586 92.2192 98.0199 93.7123 97.101C95.1819 99.5995 96.4264 100.694 98.5475 102.815C99.8218 101.948 100.907 100.832 101.737 99.5338C99.6537 97.4784 98.5475 96.2245 96.0561 94.7573ZM92.5405 93.5854C92.0311 94.0924 91.3829 94.4371 90.6778 94.5761C89.9726 94.7151 89.2421 94.6421 88.5785 94.3662C87.9148 94.0904 87.3477 93.6242 86.9487 93.0264C86.5498 92.4286 86.3369 91.726 86.3369 91.0073C86.3369 90.2886 86.5498 89.586 86.9487 88.9881C87.3477 88.3903 87.9148 87.9241 88.5785 87.6483C89.2421 87.3725 89.9726 87.2994 90.6778 87.4384C91.3829 87.5774 92.0311 87.9221 92.5405 88.4291C92.879 88.7681 93.1473 89.1705 93.33 89.6133C93.5127 90.0561 93.6062 90.5307 93.6051 91.0097C93.604 91.4887 93.5083 91.9628 93.3237 92.4048C93.139 92.8468 92.8688 93.248 92.5288 93.5854H92.5405Z" fill="#3460FB"/>
<path d="M79.0195 107.689H77.6133V106.283H79.0195V107.689ZM75.2695 107.689H73.8633V106.283H75.2695V107.689ZM71.5195 107.689H70.1133V106.283H71.5195V107.689ZM67.7695 107.689H66.3633V106.283H67.7695V107.689ZM64.0195 107.689H62.6133V106.283H64.0195V107.689ZM60.2695 107.689H58.8633V106.283H60.2695V107.689ZM56.5195 107.689H55.1133V106.283H56.5195V107.689ZM52.7695 107.689H51.3633V106.283H52.7695V107.689ZM49.0195 107.689H47.6133V106.283H49.0195V107.689ZM45.2695 107.689H43.8633V106.283H45.2695V107.689ZM45.2742 104.176H43.868V102.77H45.2742V104.176ZM45.2742 100.426H43.868V99.125H45.2742V100.426Z" fill="#A9AFC4"/>
<path d="M104.542 13.9721L101.414 17.1016L102.409 18.0958L105.537 14.9663L104.542 13.9721Z" fill="#5E6175"/>
<path d="M98.9678 10.8594H97.5615V15.2844H98.9678V10.8594Z" fill="#5E6175"/>
<path d="M108.779 20.2812H104.354V21.6875H108.779V20.2812Z" fill="#5E6175"/>
<path d="M12.7291 100.522C12.2918 100.522 11.8641 100.393 11.5003 100.15C11.1365 99.9077 10.8529 99.5625 10.6853 99.1586C10.5177 98.7546 10.4738 98.3101 10.559 97.8811C10.6442 97.4522 10.8547 97.0581 11.1639 96.7489C11.4732 96.4397 11.8672 96.2291 12.2962 96.1439C12.7251 96.0587 13.1697 96.1027 13.5736 96.2703C13.9776 96.4378 14.3227 96.7215 14.5654 97.0853C14.8081 97.4491 14.9374 97.8767 14.9369 98.3141C14.9357 98.8992 14.7027 99.4601 14.2889 99.8739C13.8751 100.288 13.3143 100.521 12.7291 100.522ZM12.7291 97.5102C12.57 97.5097 12.4143 97.5564 12.2818 97.6445C12.1493 97.7326 12.0459 97.8579 11.9847 98.0048C11.9235 98.1517 11.9073 98.3134 11.938 98.4695C11.9688 98.6256 12.0451 98.769 12.1575 98.8817C12.2698 98.9943 12.4131 99.0711 12.5691 99.1023C12.7251 99.1336 12.8868 99.1178 13.0339 99.057C13.1809 98.9962 13.3066 98.8932 13.395 98.7609C13.4835 98.6287 13.5307 98.4732 13.5307 98.3141C13.53 98.1015 13.4455 97.8977 13.2954 97.7471C13.1452 97.5966 12.9417 97.5114 12.7291 97.5102ZM22.9924 108.336C22.3933 108.337 21.8074 108.16 21.3088 107.828C20.8102 107.496 20.4213 107.023 20.1914 106.47C19.9615 105.917 19.9009 105.308 20.0172 104.72C20.1335 104.132 20.4215 103.592 20.8448 103.168C21.2681 102.744 21.8077 102.455 22.3952 102.338C22.9827 102.221 23.5918 102.281 24.1454 102.51C24.699 102.739 25.1722 103.127 25.5052 103.625C25.8381 104.123 26.0158 104.709 26.0158 105.308C26.0152 106.11 25.6966 106.879 25.1299 107.447C24.5631 108.014 23.7945 108.334 22.9924 108.336ZM22.9924 103.688C22.6714 103.688 22.3575 103.783 22.0904 103.961C21.8234 104.139 21.6151 104.392 21.4921 104.688C21.369 104.985 21.3367 105.311 21.3992 105.626C21.4617 105.941 21.6162 106.23 21.8432 106.457C22.0702 106.684 22.3594 106.838 22.6742 106.901C22.989 106.963 23.3153 106.931 23.6118 106.808C23.9082 106.685 24.1615 106.477 24.3396 106.21C24.5176 105.943 24.6124 105.629 24.6119 105.308C24.6113 104.878 24.4405 104.467 24.1369 104.163C23.8333 103.86 23.4217 103.689 22.9924 103.688Z" fill="#5E6175"/>
<path d="M45.2744 94.6484H43.8682V93.2422H45.2744V94.6484ZM45.2744 90.8984H43.8682V89.4922H45.2744V90.8984ZM45.2744 87.1484H43.8682V85.7422H45.2744V87.1484ZM45.2744 83.3984H43.8682V81.9922H45.2744V83.3984ZM45.2744 79.6484H43.8682V78.2422H45.2744V79.6484Z" fill="#A9AFC4"/>
<defs>
<linearGradient id="paint0_linear_7401_69060" x1="72.4668" y1="85.2961" x2="99.7199" y2="85.2961" gradientUnits="userSpaceOnUse">
<stop stop-color="#CACFDD"/>
<stop offset="1" stop-color="#EEF0F1"/>
</linearGradient>
</defs>
</svg>
