<svg width="149" height="148" viewBox="0 0 149 148" fill="none" xmlns="http://www.w3.org/2000/svg">
<path d="M121.86 27.38C121.86 22.496 117.864 18.5 112.98 18.5H36.0167C31.1327 18.5 27.1367 22.496 27.1367 27.38V120.62C27.1367 125.504 31.1327 129.5 36.0167 129.5H96.6923L121.852 105.82L121.86 27.38Z" fill="#F3F8FF"/>
<path d="M105.575 105.82H121.855L96.6953 129.5V114.7C96.6953 109.816 100.691 105.82 105.575 105.82Z" fill="#3460FB"/>
<path d="M71.0755 78.4394H98.1802C98.769 78.4394 99.3336 78.2055 99.75 77.7892C100.166 77.3728 100.4 76.8082 100.4 76.2194C100.4 75.6306 100.166 75.0659 99.75 74.6496C99.3336 74.2333 98.769 73.9994 98.1802 73.9994H71.0755C70.4867 73.9994 69.922 74.2333 69.5057 74.6496C69.0894 75.0659 68.8555 75.6306 68.8555 76.2194C68.8555 76.8082 69.0894 77.3728 69.5057 77.7892C69.922 78.2055 70.4867 78.4394 71.0755 78.4394ZM71.0755 51.7994H98.1802C98.769 51.7994 99.3336 51.5655 99.75 51.1492C100.166 50.7328 100.4 50.1682 100.4 49.5794C100.4 48.9906 100.166 48.4259 99.75 48.0096C99.3336 47.5933 98.769 47.3594 98.1802 47.3594H71.0755C70.4867 47.3594 69.922 47.5933 69.5057 48.0096C69.0894 48.4259 68.8555 48.9906 68.8555 49.5794C68.8555 50.1682 69.0894 50.7328 69.5057 51.1492C69.922 51.5655 70.4867 51.7994 71.0755 51.7994Z" fill="#E1E7FF"/>
<path d="M41.3255 53.1515L47.2455 59.0715C47.5639 59.389 47.9503 59.6299 48.3755 59.7759C48.8007 59.922 49.2535 59.9693 49.6998 59.9144C50.146 59.8595 50.5739 59.7038 50.951 59.459C51.3281 59.2143 51.6446 58.8869 51.8764 58.5017L60.7564 43.7017C60.9564 43.3684 61.0888 42.9989 61.146 42.6144C61.2032 42.23 61.1842 41.838 61.0899 41.4609C60.9956 41.0838 60.828 40.7289 60.5966 40.4166C60.3652 40.1043 60.0745 39.8406 59.7412 39.6406C59.4078 39.4406 59.0384 39.3082 58.6539 39.251C58.2694 39.1938 57.8774 39.2129 57.5003 39.3071C57.1232 39.4014 56.7684 39.569 56.4561 39.8005C56.1437 40.0319 55.88 40.3225 55.68 40.6559L48.7492 52.2043L45.511 48.9661C45.2379 48.6833 44.9113 48.4578 44.5502 48.3027C44.189 48.1476 43.8006 48.0659 43.4076 48.0625C43.0146 48.0591 42.6248 48.134 42.261 48.2828C41.8973 48.4317 41.5668 48.6514 41.2888 48.9294C41.0109 49.2073 40.7911 49.5378 40.6423 49.9016C40.4935 50.2653 40.4186 50.6551 40.422 51.0481C40.4254 51.4411 40.5071 51.8296 40.6622 52.1907C40.8173 52.5518 41.0428 52.8784 41.3255 53.1515ZM41.3255 79.7915L47.2455 85.7115C47.5639 86.029 47.9503 86.2699 48.3755 86.4159C48.8007 86.562 49.2535 86.6093 49.6998 86.5544C50.146 86.4995 50.5739 86.3438 50.951 86.099C51.3281 85.8543 51.6446 85.5269 51.8764 85.1417L60.7564 70.3417C60.9564 70.0084 61.0888 69.6389 61.146 69.2544C61.2032 68.87 61.1842 68.478 61.0899 68.1009C60.9956 67.7238 60.828 67.3689 60.5966 67.0566C60.3652 66.7443 60.0745 66.4806 59.7412 66.2806C59.4078 66.0806 59.0384 65.9482 58.6539 65.891C58.2694 65.8338 57.8774 65.8529 57.5003 65.9471C57.1232 66.0414 56.7684 66.209 56.4561 66.4405C56.1437 66.6719 55.88 66.9625 55.68 67.2959L48.7492 78.8443L45.511 75.6061C45.2379 75.3233 44.9113 75.0978 44.5502 74.9427C44.189 74.7876 43.8006 74.7059 43.4076 74.7025C43.0146 74.6991 42.6248 74.774 42.261 74.9228C41.8973 75.0717 41.5668 75.2914 41.2888 75.5694C41.0109 75.8473 40.7911 76.1778 40.6423 76.5416C40.4935 76.9053 40.4186 77.2951 40.422 77.6881C40.4254 78.0812 40.5071 78.4696 40.6622 78.8307C40.8173 79.1918 41.0428 79.5184 41.3255 79.7915Z" fill="#111928"/>
</svg>
